<svg width="185" height="28" viewBox="0 0 185 28" fill="none" xmlns="http://www.w3.org/2000/svg">
<g clip-path="url(#clip0_2_4)">
<path fill-rule="evenodd" clip-rule="evenodd" d="M0 26.856V0.856003H16.604V7.101H6.319V11.718H14.26V17.963H6.32V26.856H0ZM26.454 0.856003H20.134V26.856H26.454V0.856003ZM44.403 14.046V0.856003H50.722V26.856H45.649L36.294 12.686V26.856H29.984V0.856003H35.769L44.403 14.046ZM68.681 14.046V0.856003H75V26.856H69.917L60.572 12.686V26.856H54.252V0.856003H60.047L68.681 14.046Z" fill="white"/>
</g>
<path d="M80.14 1.16C79.342 1.16 79 1.426 79 2.224V5.188C79 5.986 79.342 6.29 80.14 6.29H85.004V25.86C85.004 26.658 85.308 27 86.106 27H90.21C91.008 27 91.274 26.658 91.274 25.86V6.29H96.138C96.936 6.29 97.278 5.986 97.278 5.188V2.224C97.278 1.426 96.936 1.16 96.138 1.16H80.14Z" fill="#7FBAF5"/>
<path d="M105.945 2.3C105.945 1.502 105.679 1.16 104.881 1.16H100.777C99.9787 1.16 99.6747 1.502 99.6747 2.3V20.806C99.6747 24.074 102.221 27.304 109.365 27.304C116.509 27.304 119.093 24.074 119.093 20.806V2.3C119.093 1.502 118.827 1.16 118.029 1.16H113.925C113.127 1.16 112.823 1.502 112.823 2.3V19.704C112.823 21.452 111.227 22.174 109.365 22.174C107.503 22.174 105.945 21.452 105.945 19.704V2.3Z" fill="#7FBAF5"/>
<path d="M142.884 2.3C142.884 1.502 142.618 1.16 141.82 1.16H138.096C137.298 1.16 136.994 1.502 136.994 2.3V15.22C136.614 14.308 136.12 13.168 135.664 12.37L129.242 1.616C129.09 1.312 128.786 1.16 128.292 1.16H124.568C123.77 1.16 123.466 1.502 123.466 2.3V25.86C123.466 26.658 123.77 27 124.568 27H128.292C129.09 27 129.356 26.658 129.356 25.86V12.94C129.774 14.004 130.344 15.334 130.99 16.36L137.07 26.468C137.298 26.848 137.526 27 138.096 27H141.82C142.618 27 142.884 26.658 142.884 25.86V2.3Z" fill="#7FBAF5"/>
<path d="M161.917 27C162.715 27 163.057 26.696 163.057 25.898V22.934C163.057 22.136 162.715 21.87 161.917 21.87H153.709V16.17H160.929C161.727 16.17 162.069 15.866 162.069 15.068V12.294C162.069 11.496 161.727 11.23 160.929 11.23H153.709V6.29H161.537C162.335 6.29 162.677 5.986 162.677 5.188V2.224C162.677 1.426 162.335 1.16 161.537 1.16H148.541C147.743 1.16 147.439 1.502 147.439 2.3V25.86C147.439 26.658 147.743 27 148.541 27H161.917Z" fill="#7FBAF5"/>
<path d="M178.518 8.76C178.518 9.558 178.784 9.9 179.582 9.9H183.534C184.332 9.9 184.636 9.558 184.636 8.76V7.354C184.636 4.086 182.508 0.856003 175.478 0.856003C168.448 0.856003 166.472 4.086 166.472 7.354V9.558C166.472 11.762 168.068 13.89 170.006 14.612L175.478 16.664C176.922 17.196 178.746 17.842 178.746 19.21V19.97C178.746 21.718 177.226 22.364 175.364 22.364C173.502 22.364 172.02 21.718 172.02 19.97V18.26C172.02 17.462 171.754 17.12 170.956 17.12H167.004C166.206 17.12 165.902 17.462 165.902 18.26V20.806C165.902 24.074 168.296 27.304 175.44 27.304C182.584 27.304 184.902 24.074 184.902 20.806V18.108C184.902 15.296 182.964 13.32 180.152 12.37L173.768 10.204C173.35 10.052 172.552 9.596 172.552 8.57V8.19C172.552 6.442 173.806 5.796 175.554 5.796C177.302 5.796 178.518 6.442 178.518 8.19V8.76Z" fill="#7FBAF5"/>
<defs>
<clipPath id="clip0_2_4">
<rect width="75" height="26" fill="white" transform="translate(0 0.856003)"/>
</clipPath>
</defs>
</svg>
