<svg width="806" height="85" viewBox="0 0 806 85" fill="none" xmlns="http://www.w3.org/2000/svg">
<path d="M60.4077 32.2013V21.6693C60.4077 11.2583 52.4179 0.968462 29.6591 0.968462H3.51067C0.96846 0.968462 0 2.05798 0 4.60018V79.6558C0 82.198 0.96846 83.2875 3.51067 83.2875H16.5849C19.1271 83.2875 19.9745 82.198 19.9745 79.6558V52.9021H29.0538L39.7068 79.6558C40.4332 81.3506 40.9174 83.2875 43.2175 83.2875H56.2917C58.955 83.2875 60.5287 81.8349 59.6813 79.6558L47.8177 49.8757C56.897 46.0018 60.4077 39.1016 60.4077 32.2013ZM29.6591 17.3112C35.5909 17.3112 40.6753 19.6113 40.6753 25.18V28.6906C40.6753 34.2593 35.5909 36.5594 29.6591 36.5594H19.9745V17.3112H29.6591Z" fill="#5236FF"/>
<path d="M106.593 0.968462H93.5188C90.9766 0.968462 89.766 2.17904 89.0396 4.60018L67.1282 79.6558C66.4019 81.9559 67.2493 83.2875 69.7915 83.2875H82.0183C84.5605 83.2875 85.65 81.9559 86.2553 79.6558L89.4028 68.0343H109.498L112.646 79.6558C113.251 81.9559 114.341 83.2875 116.883 83.2875H130.32C132.862 83.2875 133.71 81.9559 132.984 79.6558L111.072 4.60018C110.346 2.17904 109.135 0.968462 106.593 0.968462ZM105.14 52.2968H93.7609L95.5767 45.7597C97.5137 38.7384 99.4506 22.1535 99.6927 20.4587C99.8138 21.5482 101.509 38.3752 103.445 45.7597L105.14 52.2968Z" fill="#5236FF"/>
<path d="M203.488 4.60018C203.488 2.05798 202.641 0.968462 200.099 0.968462H188.235C185.693 0.968462 184.724 2.05798 184.724 4.60018V45.7597C183.514 42.8543 181.94 39.2226 180.487 36.6804L160.029 2.42115C159.544 1.45269 158.576 0.968462 157.002 0.968462H145.138C142.596 0.968462 141.628 2.05798 141.628 4.60018V79.6558C141.628 82.198 142.596 83.2875 145.138 83.2875H157.002C159.544 83.2875 160.392 82.198 160.392 79.6558V38.4963C161.723 41.8859 163.539 46.1229 165.597 49.3915L184.966 81.5927C185.693 82.8033 186.419 83.2875 188.235 83.2875H200.099C202.641 83.2875 203.488 82.198 203.488 79.6558V4.60018Z" fill="#5236FF"/>
<path d="M248.868 83.2875C271.626 83.2875 279.858 72.9977 279.858 62.5867V21.6693C279.858 11.2583 271.626 0.968462 248.868 0.968462H221.509C218.966 0.968462 217.998 2.05798 217.998 4.60018V79.6558C217.998 82.077 218.845 83.2875 221.024 83.2875H248.868ZM248.868 17.3112C254.799 17.3112 259.884 19.6113 259.884 25.18V59.0761C259.884 64.6447 254.799 66.9448 248.868 66.9448H237.972V17.3112H248.868Z" fill="#5236FF"/>
<path d="M291.975 63.5552C291.975 73.9661 300.086 84.256 322.845 84.256C345.604 84.256 353.836 73.9661 353.836 63.5552V20.7008C353.836 10.2899 345.604 0 322.845 0C300.086 0 291.975 10.2899 291.975 20.7008V63.5552ZM333.861 60.0445C333.861 65.6132 328.777 67.9132 322.845 67.9132C316.913 67.9132 311.95 65.6132 311.95 60.0445V24.2115C311.95 18.6428 316.913 16.3428 322.845 16.3428C328.777 16.3428 333.861 18.6428 333.861 24.2115V60.0445Z" fill="#5236FF"/>
<path d="M444.184 4.60018C444.184 2.05798 443.337 0.968462 440.795 0.968462H428.326C426.51 0.968462 425.542 1.45269 425.057 2.66327L409.199 40.1911C406.899 45.5176 405.688 49.2704 405.688 49.5125C405.446 49.0283 403.872 44.0649 402.177 39.949L385.714 2.90538C385.108 1.6948 384.382 0.968462 382.566 0.968462H370.703C368.16 0.968462 367.192 2.05798 367.192 4.60018V79.6558C367.192 82.198 368.16 83.2875 370.703 83.2875H382.566C385.108 83.2875 385.956 82.198 385.956 79.6558V41.6438C386.198 42.6122 387.772 48.6651 389.103 51.8126L395.761 67.1869C396.73 69.3659 397.94 70.8186 400.362 70.8186H410.894C413.315 70.8186 414.646 69.6081 415.615 67.1869L420.941 53.9916C422.394 50.1178 424.694 41.6438 424.815 41.2806V79.6558C424.815 82.198 425.784 83.2875 428.326 83.2875H440.795C443.337 83.2875 444.184 82.198 444.184 79.6558V4.60018Z" fill="#5236FF"/>
<path d="M471.478 0.968462C468.936 0.968462 467.847 1.81586 467.847 4.35807V13.8006C467.847 16.3428 468.936 17.3112 471.478 17.3112H486.974V79.6558C486.974 82.198 487.942 83.2875 490.484 83.2875H503.559C506.101 83.2875 506.948 82.198 506.948 79.6558V17.3112H522.444C524.986 17.3112 526.075 16.3428 526.075 13.8006V4.35807C526.075 1.81586 524.986 0.968462 522.444 0.968462H471.478Z" fill="white"/>
<path d="M553.685 4.60018C553.685 2.05798 552.838 0.968462 550.295 0.968462H537.221C534.679 0.968462 533.711 2.05798 533.711 4.60018V63.5552C533.711 73.9661 541.821 84.256 564.58 84.256C587.339 84.256 595.571 73.9661 595.571 63.5552V4.60018C595.571 2.05798 594.723 0.968462 592.181 0.968462H579.107C576.565 0.968462 575.596 2.05798 575.596 4.60018V60.0445C575.596 65.6132 570.512 67.9132 564.58 67.9132C558.648 67.9132 553.685 65.6132 553.685 60.0445V4.60018Z" fill="white"/>
<path d="M671.364 4.60018C671.364 2.05798 670.517 0.968462 667.975 0.968462H656.111C653.569 0.968462 652.6 2.05798 652.6 4.60018V45.7597C651.39 42.8543 649.816 39.2226 648.363 36.6804L627.905 2.42115C627.42 1.45269 626.452 0.968462 624.878 0.968462H613.015C610.472 0.968462 609.504 2.05798 609.504 4.60018V79.6558C609.504 82.198 610.472 83.2875 613.015 83.2875H624.878C627.42 83.2875 628.268 82.198 628.268 79.6558V38.4963C629.599 41.8859 631.415 46.1229 633.473 49.3915L652.842 81.5927C653.569 82.8033 654.295 83.2875 656.111 83.2875H667.975C670.517 83.2875 671.364 82.198 671.364 79.6558V4.60018Z" fill="white"/>
<path d="M731.997 83.2875C734.539 83.2875 735.629 82.3191 735.629 79.7769V70.3344C735.629 67.7922 734.539 66.9448 731.997 66.9448H705.849V48.7862H728.849C731.392 48.7862 732.481 47.8177 732.481 45.2755V36.4383C732.481 33.8961 731.392 33.0487 728.849 33.0487H705.849V17.3112H730.786C733.329 17.3112 734.418 16.3428 734.418 13.8006V4.35807C734.418 1.81586 733.329 0.968462 730.786 0.968462H689.385C686.843 0.968462 685.874 2.05798 685.874 4.60018V79.6558C685.874 82.198 686.843 83.2875 689.385 83.2875H731.997Z" fill="white"/>
<path d="M784.882 25.18C784.882 27.7222 785.729 28.8117 788.272 28.8117H800.862C803.404 28.8117 804.372 27.7222 804.372 25.18V20.7008C804.372 10.2899 797.593 0 775.197 0C752.802 0 746.507 10.2899 746.507 20.7008V27.7222C746.507 34.7435 751.591 41.5227 757.765 43.8228L775.197 50.3599C779.798 52.0547 785.608 54.1127 785.608 58.4708V60.8919C785.608 66.4606 780.766 68.5185 774.834 68.5185C768.902 68.5185 764.181 66.4606 764.181 60.8919V55.4443C764.181 52.9021 763.334 51.8126 760.792 51.8126H748.202C745.659 51.8126 744.691 52.9021 744.691 55.4443V63.5552C744.691 73.9661 752.318 84.256 775.076 84.256C797.835 84.256 805.22 73.9661 805.22 63.5552V54.9601C805.22 46.0018 799.046 39.7068 790.088 36.6804L769.75 29.7801C768.418 29.2959 765.876 27.8432 765.876 24.5747V23.3641C765.876 17.7954 769.871 15.7375 775.44 15.7375C781.008 15.7375 784.882 17.7954 784.882 23.3641V25.18Z" fill="white"/>
</svg>
